<svg xmlns="http://www.w3.org/2000/svg" width="1200" height="800" viewBox="0 0 1200 800" fill="none">
  <defs>
    <linearGradient id="g2" x1="120" y1="120" x2="1040" y2="700" gradientUnits="userSpaceOnUse">
      <stop stop-color="#256F3A" stop-opacity="0.75"/>
      <stop offset="1" stop-color="#84A0B0" stop-opacity="0.35"/>
    </linearGradient>
  </defs>
  <rect x="20" y="20" width="1160" height="760" rx="42" fill="#0E1A15"/>
  <rect x="90" y="90" width="1020" height="620" rx="34" fill="url(#g2)"/>
  <rect x="170" y="220" width="190" height="120" rx="18" fill="#FFFFFF" fill-opacity="0.2"/>
  <rect x="500" y="170" width="190" height="120" rx="18" fill="#FFFFFF" fill-opacity="0.2"/>
  <rect x="830" y="250" width="190" height="120" rx="18" fill="#FFFFFF" fill-opacity="0.2"/>
  <rect x="350" y="470" width="190" height="120" rx="18" fill="#FFFFFF" fill-opacity="0.2"/>
  <rect x="700" y="510" width="190" height="120" rx="18" fill="#FFFFFF" fill-opacity="0.2"/>
  <path d="M360 280H500M690 230H830M265 340L445 470M690 290L795 510M1020 310L890 520" stroke="#E8FFF1" stroke-width="8" stroke-linecap="round"/>
  <text x="210" y="295" fill="#E8FFF1" font-size="28" font-family="Arial">FN-A</text>
  <text x="540" y="245" fill="#E8FFF1" font-size="28" font-family="Arial">FN-B</text>
</svg>
