<svg xmlns="http://www.w3.org/2000/svg" viewBox="0 0 24 24" aria-hidden="true">
  <path fill="#3c5874" d="M10.84 3.1a1.25 1.25 0 0 1 2.32 0l.4.98a1.2 1.2 0 0 0 .94.73l1.06.18a1.25 1.25 0 0 1 .69 2.11l-.8.79a1.2 1.2 0 0 0-.33 1.1l.22 1.05a1.25 1.25 0 0 1-1.81 1.33l-.95-.5a1.2 1.2 0 0 0-1.16 0l-.95.5a1.25 1.25 0 0 1-1.81-1.33l.22-1.05a1.2 1.2 0 0 0-.33-1.1l-.8-.79A1.25 1.25 0 0 1 8.5 5l1.06-.18a1.2 1.2 0 0 0 .94-.73l.34-1Zm1.16 2.95a2.25 2.25 0 1 0 0 4.5 2.25 2.25 0 0 0 0-4.5Zm-8.75 8.8a1.25 1.25 0 0 1 1.25-1.25h15a1.25 1.25 0 1 1 0 2.5h-15a1.25 1.25 0 0 1-1.25-1.25Zm2.25 4.3a1.25 1.25 0 0 1 1.25-1.25h10.5a1.25 1.25 0 1 1 0 2.5H6.75a1.25 1.25 0 0 1-1.25-1.25Z"/>
</svg>
