<svg xmlns="http://www.w3.org/2000/svg" viewBox="0 0 24 24" aria-hidden="true">
  <path fill="currentColor" d="M12 15.5a3.5 3.5 0 1 1 0-7 3.5 3.5 0 0 1 0 7Zm7.94-2.56a7.5 7.5 0 0 0 0-1.88l2.03-1.58a.5.5 0 0 0 .12-.63l-1.92-3.32a.5.5 0 0 0-.6-.22l-2.39.96a7.5 7.5 0 0 0-1.62-.94l-.36-2.54A.5.5 0 0 0 14.7 2h-3.4a.5.5 0 0 0-.5.4l-.36 2.54a7.5 7.5 0 0 0-1.62.94l-2.39-.96a.5.5 0 0 0-.6.22L3.91 8.46a.5.5 0 0 0 .12.63L6.06 10.7a7.5 7.5 0 0 0 0 1.88l-2.03 1.58a.5.5 0 0 0-.12.63l1.92 3.32a.5.5 0 0 0 .6.22l2.39-.96c.5.38 1.04.7 1.62.94l.36 2.54a.5.5 0 0 0 .5.4h3.4a.5.5 0 0 0 .5-.4l.36-2.54a7.5 7.5 0 0 0 1.62-.94l2.39.96a.5.5 0 0 0 .6-.22l1.92-3.32a.5.5 0 0 0-.12-.63l-2.03-1.58Z"/>
</svg>
